<?xml version="1.0" encoding="UTF-8" standalone="no"?>
<!-- Created with Inkscape (http://www.inkscape.org/) -->
<svg xmlns:dc="http://purl.org/dc/elements/1.1/" xmlns:cc="http://creativecommons.org/ns#" xmlns:rdf="http://www.w3.org/1999/02/22-rdf-syntax-ns#" xmlns:svg="http://www.w3.org/2000/svg" xmlns="http://www.w3.org/2000/svg" xmlns:xlink="http://www.w3.org/1999/xlink" xmlns:sodipodi="http://sodipodi.sourceforge.net/DTD/sodipodi-0.dtd" xmlns:inkscape="http://www.inkscape.org/namespaces/inkscape" id="svg1106" sodipodi:version="0.32" inkscape:version="0.46dev+devel" width="464.05075" height="970.73016" sodipodi:docbase="/home/glibersat/Desktop" sodipodi:docname="glibersat_Nioubiteul_ok.svg" version="1.0" inkscape:output_extension="org.inkscape.output.svg.inkscape">
  <defs id="defs1108">
    <linearGradient id="linearGradient1262">
      <stop style="stop-color:#000;stop-opacity:1;" offset="0.0000000" id="stop1263"/>
      <stop style="stop-color:#fff;stop-opacity:1;" offset="1" id="stop1264"/>
    </linearGradient>
    <linearGradient id="linearGradient1257">
      <stop style="stop-color:#ff0a31;stop-opacity:1.0000000;" offset="0.0000000" id="stop1258"/>
      <stop style="stop-color:#c60200;stop-opacity:1.0000000;" offset="1.0000000" id="stop1259"/>
    </linearGradient>
    <linearGradient id="linearGradient1253">
      <stop style="stop-color:#6b5635;stop-opacity:1.0000000;" offset="0.0000000" id="stop1254"/>
      <stop style="stop-color:#fff;stop-opacity:1;" offset="1" id="stop1255"/>
    </linearGradient>
    <linearGradient xlink:href="#linearGradient1257" id="linearGradient1256" x1="0" y1="0.5" x2="1" y2="0.5"/>
    <radialGradient xlink:href="#linearGradient1257" id="radialGradient1260" cx="0.5" cy="0.5" r="0.65535873" fx="0.5" fy="0.5"/>
    <radialGradient xlink:href="#linearGradient1253" id="radialGradient1261" cx="0.79850745" cy="0.6015625" r="2.146312" fx="0.81343281" fy="0.59375"/>
    <radialGradient xlink:href="#linearGradient1253" id="radialGradient1265" cx="0.28225806" cy="0.53125" r="1.6814535" fx="0.26612917" fy="0.5546875"/>
    <linearGradient xlink:href="#linearGradient1257" id="linearGradient1266" x1="0" y1="0.5" x2="1" y2="0.5"/>
    <linearGradient xlink:href="#linearGradient1262" id="linearGradient1267" x1="0" y1="0.5" x2="1" y2="0.5"/>
    <radialGradient xlink:href="#linearGradient1262" id="radialGradient1268"/>
    <radialGradient inkscape:collect="always" xlink:href="#linearGradient1257" id="radialGradient1937" cx="565.16344" cy="346.25639" fx="565.16344" fy="346.25639" r="420.98908" gradientTransform="scale(0.662921,1.508475)" gradientUnits="userSpaceOnUse"/>
    <linearGradient inkscape:collect="always" xlink:href="#linearGradient1257" id="linearGradient1939" x1="643.22952" y1="310.0814" x2="680.99921" y2="310.0814" gradientTransform="scale(0.889199,1.124607)" gradientUnits="userSpaceOnUse"/>
    <linearGradient inkscape:collect="always" xlink:href="#linearGradient1257" id="linearGradient1941" x1="156.17939" y1="313.27598" x2="193.83391" y2="313.27598" gradientTransform="scale(0.905966,1.103794)" gradientUnits="userSpaceOnUse"/>
    <radialGradient inkscape:collect="always" xlink:href="#linearGradient1253" id="radialGradient1943" cx="537.79329" cy="113.83186" fx="538.56221" fy="113.42938" r="110.57287" gradientTransform="scale(1.019462,0.98091)" gradientUnits="userSpaceOnUse"/>
    <radialGradient inkscape:collect="always" xlink:href="#linearGradient1253" id="radialGradient1945" cx="209.52726" cy="106.33161" fx="208.67567" fy="107.56908" r="88.778467" gradientTransform="scale(0.982927,1.01737)" gradientUnits="userSpaceOnUse"/>
    <radialGradient inkscape:collect="always" xlink:href="#linearGradient1253" id="radialGradient2569" gradientUnits="userSpaceOnUse" gradientTransform="matrix(0.982927,0,0,1.01737,-141.4933,-36.09553)" cx="209.52726" cy="106.33161" fx="208.67567" fy="107.56908" r="88.778467"/>
    <radialGradient inkscape:collect="always" xlink:href="#linearGradient1253" id="radialGradient2572" gradientUnits="userSpaceOnUse" gradientTransform="matrix(1.019462,0,0,0.98091,-141.4933,-36.09553)" cx="537.79329" cy="113.83186" fx="538.56221" fy="113.42938" r="110.57287"/>
    <linearGradient inkscape:collect="always" xlink:href="#linearGradient1257" id="linearGradient2575" gradientUnits="userSpaceOnUse" gradientTransform="matrix(0.905966,0,0,1.103794,-141.4933,-36.09553)" x1="156.17939" y1="313.27598" x2="193.83391" y2="313.27598"/>
    <linearGradient inkscape:collect="always" xlink:href="#linearGradient1257" id="linearGradient2578" gradientUnits="userSpaceOnUse" gradientTransform="matrix(0.889199,0,0,1.124607,-141.4933,-36.09553)" x1="643.22952" y1="310.0814" x2="680.99921" y2="310.0814"/>
    <radialGradient inkscape:collect="always" xlink:href="#linearGradient1257" id="radialGradient2584" gradientUnits="userSpaceOnUse" gradientTransform="matrix(0.662921,0,0,1.508475,-141.4933,-36.09553)" cx="565.16344" cy="346.25639" fx="565.16344" fy="346.25639" r="420.98908"/>
  </defs>
  <sodipodi:namedview id="base" pagecolor="#ffffff" bordercolor="#666666" borderopacity="1.0" inkscape:pageopacity="0.0" inkscape:pageshadow="2" inkscape:zoom="1.2279853" inkscape:cx="94.600059" inkscape:cy="917.00121" inkscape:window-width="1020" inkscape:window-height="643" inkscape:window-x="44" inkscape:window-y="58" inkscape:current-layer="svg1106" showgrid="false"/>
  <path style="fill:url(#radialGradient2584);fill-opacity:1;fill-rule:evenodd;stroke:#000000;stroke-width:0.75;stroke-linecap:butt;stroke-linejoin:miter;stroke-dasharray:none;stroke-opacity:1" d="M 231.35453,2.091778 C 406.96494,8.249699 460.21215,32.402215 440.76124,290.48434 C 437.70746,297.60983 434.65367,304.73533 431.59989,311.86082 C 435.19881,430.95834 438.79772,550.77563 431.59989,669.15337 C 443.29107,681.92362 437.70746,699.01258 440.76124,713.94218 C 445.75856,752.38642 447.87674,806.66591 442.79709,859.50582 C 434.29681,978.20647 310.63118,967.34617 240.22952,969.44197 C 161.77676,967.68547 55.97223,993.28077 26.46474,860.52374 C 23.58561,799.3246 22.86582,750.36177 26.46474,683.40436 C 29.17921,678.31472 31.89369,673.22508 34.60816,668.13544 C 31.331,550.48949 27.33406,435.00288 33.41408,310.87888 C 29.81516,301.04184 26.21625,291.20479 22.61733,281.36775 C 9.4213,27.044268 59.56621,10.969107 231.35453,2.091778 z" id="path1228" sodipodi:nodetypes="ccccccccccccc"/>
  <path style="fill:#bf0000;fill-opacity:1;fill-rule:evenodd;stroke:#000000;stroke-width:0.75;stroke-linecap:butt;stroke-linejoin:miter;stroke-dasharray:none;stroke-opacity:1" d="M 431.59989,98.09604 C 394.27589,23.787332 309.10928,14.625983 228.01439,12.590127 C 141.82986,16.322528 73.96802,18.019074 30.53645,109.29324 C 42.41227,74.68371 30.87576,4.446707 229.03232,0.374997 C 408.86617,3.76809 419.72407,51.949995 431.59989,98.09604 z" id="path1234" sodipodi:nodetypes="ccccc"/>
  <path style="fill:#000000;fill-opacity:0.83064515;fill-rule:evenodd;stroke:#000000;stroke-width:1pt;stroke-linecap:butt;stroke-linejoin:miter;stroke-opacity:1" d="M 62.0922,234.49832 C 142.50847,143.22415 322.68165,135.42004 401.06206,235.51625 C 395.63311,283.01953 390.20417,330.52282 384.77522,378.0261 C 310.80582,361.39995 194.08347,343.75587 80.4149,383.11574 C 74.30733,333.5766 68.19977,284.03746 62.0922,234.49832 z" id="path1229" sodipodi:nodetypes="ccccc"/>
  <path style="fill:#000000;fill-opacity:0.83064515;fill-rule:evenodd;stroke:#000000;stroke-width:1pt;stroke-linecap:butt;stroke-linejoin:miter;stroke-opacity:1" d="M 93.64795,706.81669 C 192.72623,717.33527 284.67901,723.78215 372.56009,701.72705 C 372.56009,750.24826 372.56009,798.76948 372.56009,847.29069 C 285.35763,905.31256 179.83248,902.25877 95.68381,850.34447 C 95.00519,802.50188 94.32657,754.65928 93.64795,706.81669 z" id="path1230" sodipodi:nodetypes="ccccc"/>
  <path style="fill:url(#linearGradient2578);fill-opacity:0.75;fill-rule:evenodd;stroke:#000000;stroke-width:1pt;stroke-linecap:butt;stroke-linejoin:miter;stroke-opacity:1" d="M 440.25227,292.01123 C 463.49495,302.69947 467.397,327.6387 460.10186,333.2373 C 451.95844,332.38903 439.74331,320.85251 431.59989,318.98631 C 431.43024,316.61114 431.26058,314.23598 431.09093,311.86081 C 434.48402,305.41394 436.85918,298.4581 440.25227,292.01123 z" id="path1232" sodipodi:nodetypes="ccccc"/>
  <path style="fill:url(#linearGradient2575);fill-opacity:0.75;fill-rule:evenodd;stroke:#000000;stroke-width:1pt" d="M 25.20956,289.54013 C 1.51913,299.19542 -3.47639,323.93882 3.56537,329.85296 C 11.73822,329.3638 24.4491,318.37588 32.66674,316.86977 C 32.94072,314.50437 33.21472,312.13897 33.4887,309.77356 C 30.38254,303.18365 28.31572,296.13005 25.20956,289.54013 z" id="path1233" sodipodi:nodetypes="ccccc"/>
  <path style="fill:url(#radialGradient2572);fill-opacity:0.75;fill-rule:evenodd;stroke:none;stroke-width:1pt;stroke-linecap:butt;stroke-linejoin:miter;stroke-opacity:1" d="M 381.72144,45.163808 C 356.78222,51.271373 360.85392,64.50443 384.77522,84.86298 C 404.2855,98.94431 416.16132,101.31947 417.3489,79.77334 C 415.65236,67.2189 386.98073,46.521044 381.72144,45.163808 z" id="path1235" sodipodi:nodetypes="cccc"/>
  <path style="fill:url(#radialGradient2569);fill-opacity:0.75;fill-rule:evenodd;stroke:#000000;stroke-width:1pt" d="M 83.15386,44.171538 C 108.50437,48.248177 105.51302,61.766471 83.31128,83.98768 C 65.00002,99.59641 53.3544,102.92148 50.43326,81.54127 C 51.11192,68.89092 78.02116,45.948449 83.15386,44.171538 z" id="path1236" sodipodi:nodetypes="cccc"/>
  <path style="fill:#000000;fill-opacity:0.83064515;fill-rule:evenodd;stroke:#000000;stroke-width:1pt;stroke-linecap:butt;stroke-linejoin:miter;stroke-opacity:1" d="M 49.87707,270.12579 C 40.71572,417.38597 42.75158,553.44894 47.84122,695.61948 C 51.91293,720.72836 54.96671,746.85517 59.03842,771.96405 C 71.42321,710.04013 79.22731,579.40609 73.2894,456.40652 C 68.03011,390.24123 59.71704,332.72833 49.87707,270.12579 z" id="path1237" sodipodi:nodetypes="ccccc"/>
  <path style="fill:#000000;fill-opacity:0.83064515;fill-rule:evenodd;stroke:#000000;stroke-width:1pt" d="M 417.24083,258.61999 C 426.40218,405.88017 424.36632,541.94314 419.27668,684.11368 C 415.20497,709.22256 412.15119,735.34937 408.07948,760.45825 C 395.69469,698.53433 387.89059,567.90029 393.8285,444.90072 C 399.08779,378.73543 407.40086,321.22253 417.24083,258.61999 z" id="path1238" sodipodi:nodetypes="ccccc"/>
  <path style="fill:#000000;fill-opacity:0.58064515;fill-rule:evenodd;stroke:#000000;stroke-width:1pt;stroke-linecap:butt;stroke-linejoin:miter;stroke-opacity:1" d="M 193.206,897.50238 L 275.9811,896.7826 L 273.82175,905.42 L 197.5247,906.13979 L 193.206,897.50238 z" id="path1239"/>
  <path sodipodi:type="arc" style="fill:#29007d;fill-opacity:1;fill-rule:evenodd;stroke:#000000;stroke-width:1pt" id="path1241" sodipodi:cx="378.24622" sodipodi:cy="965.6283" sodipodi:rx="16.914911" sodipodi:ry="8.9972935" d="M 395.16113,965.6283 A 16.914911,8.9972935 0 1 1 361.3313,965.6283 A 16.914911,8.9972935 0 1 1 395.16113,965.6283 z" transform="translate(-142.93287,-44.013148)"/>
  <path style="fill:#ff0000;fill-opacity:0.7177419;fill-rule:evenodd;stroke:#000000;stroke-width:1pt;stroke-linecap:butt;stroke-linejoin:miter;stroke-opacity:1" d="M 354.43749,918.3761 C 359.95583,908.29914 403.62269,890.30454 412.02017,896.7826 C 418.01836,914.77719 386.58783,933.49156 373.87165,937.81026 C 363.0749,937.81025 353.71771,929.17286 354.43749,918.3761 z" id="path1242" sodipodi:nodetypes="cccc"/>
  <path style="fill:#ff0000;fill-opacity:0.7177419;fill-rule:evenodd;stroke:#000000;stroke-width:1pt" d="M 118.00233,920.2404 C 112.48399,910.16344 68.81713,892.16884 60.41965,898.6469 C 54.42146,916.64149 85.85199,935.35586 98.56817,939.67456 C 109.36492,939.67455 118.72211,931.03716 118.00233,920.2404 z" id="path1243" sodipodi:nodetypes="cccc"/>
  <path style="fill:none;fill-opacity:0.75;fill-rule:evenodd;stroke:#000000;stroke-width:3.5;stroke-linecap:butt;stroke-linejoin:miter;stroke-dasharray:none;stroke-opacity:0.64516129" d="M 382.50905,380.69787 C 370.99252,488.66538 370.27273,595.19333 371.7123,697.40258" id="path1244" sodipodi:nodetypes="cc"/>
  <path style="fill:none;fill-opacity:0.75;fill-rule:evenodd;stroke:#000000;stroke-width:2.75;stroke-linecap:butt;stroke-linejoin:miter;stroke-dasharray:none;stroke-opacity:0.66129037" d="M 80.91978,384.29679 C 90.75682,502.10134 94.1158,601.91131 94.59566,703.16085" id="path1245" sodipodi:nodetypes="cc"/>
  <path style="fill:#000000;fill-opacity:0.75;fill-rule:nonzero;stroke:none;stroke-width:1pt;stroke-linecap:butt;stroke-linejoin:miter;stroke-opacity:1" id="path1250" d="M 222.3028,686.6317 C 221.83808,685.61956 222.53751,688.84889 222.73833,689.94436 C 223.13689,692.11851 223.62769,694.2729 224.17966,696.41322 C 225.81821,702.7669 227.98782,708.92616 230.31615,715.05499 C 230.89445,716.49004 231.47275,717.92509 232.05104,719.36013 L 231.21708,719.5165 C 230.62032,718.08273 230.02355,716.64895 229.42679,715.21518 C 225.75268,706.1889 220.69577,696.28581 218.81275,686.6317 L 222.3028,686.6317 z"/>
  <path style="fill:#e1bd23;fill-opacity:1;fill-rule:evenodd;stroke:#000000;stroke-width:1pt;stroke-linecap:butt;stroke-linejoin:miter;stroke-opacity:1" d="M 169.45315,937.09047 C 169.09326,942.72877 167.2938,947.6473 165.13445,952.92571 C 212.76012,955.56492 264.3446,956.04477 313.40984,950.04658 C 310.41074,946.20774 308.49131,940.92932 307.65157,934.21134 C 263.74478,938.76997 216.23907,939.00989 169.45315,937.09047 z" id="path1251" sodipodi:nodetypes="ccccc"/>
  <path sodipodi:type="arc" style="fill:#0a007d;fill-opacity:1;fill-rule:evenodd;stroke:#000000;stroke-width:0.5;stroke-dasharray:none;stroke-opacity:1" id="path1271" sodipodi:cx="375.00717" sodipodi:cy="74.536369" sodipodi:rx="18.714369" sodipodi:ry="11.156644" d="M 393.72154,74.536369 A 18.714369,11.156644 0 1 1 356.2928,74.536369 A 18.714369,11.156644 0 1 1 393.72154,74.536369 z" transform="matrix(1,0,0,0.86614,-142.59855,-33.279776)"/>
  <path transform="scale(1.3540178,-0.7385427)" style="font-size:19.30892181px;font-style:normal;font-variant:normal;font-weight:normal;font-stretch:normal;line-height:100%;writing-mode:lr-tb;text-anchor:start;fill:#ffffff;fill-opacity:1;stroke:none;stroke-width:1pt;stroke-linecap:butt;stroke-linejoin:miter;stroke-opacity:1;font-family:Bitstream Vera Sans Mono" d="M 165.31194,-48.444623 L 167.16929,-48.444623 L 168.51752,-37.017663 L 170.12031,-44.579067 L 172.10966,-44.579067 L 173.7313,-36.998807 L 175.07953,-48.444623 L 176.93689,-48.444623 L 174.8344,-34.368343 L 173.03362,-34.368343 L 171.1197,-42.731143 L 169.2152,-34.368343 L 167.41442,-34.368343 L 165.31194,-48.444623 z" id="text1272"/>
  <path style="fill:none;fill-opacity:0.75;fill-rule:evenodd;stroke:#000000;stroke-width:2.4342618;stroke-opacity:0.46774196" d="M 61.58324,229.32093 C 67.6908,92.44277 125.71267,27.746442 231.06817,20.795596 C 362.04151,24.716586 393.25795,108.30494 401.06206,229.85561" id="path1276" sodipodi:nodetypes="ccc"/>
  <path transform="scale(1.3385777,0.7470616)" style="font-size:10.6583662px;font-style:normal;font-weight:normal;fill:#000000;fill-opacity:1;stroke:none;stroke-width:1pt;stroke-linecap:butt;stroke-linejoin:miter;stroke-opacity:1;font-family:helvetica" d="M 150.48736,1269.5972 L 150.48736,1270.4976 L 145.44442,1270.4976 C 145.43748,1270.272 145.47391,1270.0552 145.55371,1269.847 C 145.68208,1269.5035 145.88765,1269.1653 146.17041,1268.8322 C 146.45318,1268.4991 146.86171,1268.114 147.39602,1267.6768 C 148.22523,1266.9968 148.78556,1266.4582 149.077,1266.0609 C 149.36844,1265.6637 149.51416,1265.2881 149.51416,1264.9342 C 149.51416,1264.563 149.38145,1264.2498 149.11604,1263.9948 C 148.85061,1263.7398 148.50453,1263.6123 148.07778,1263.6123 C 147.62674,1263.6123 147.26591,1263.7476 146.99529,1264.0182 C 146.72467,1264.2889 146.58762,1264.6636 146.58415,1265.1424 L 145.62136,1265.0435 C 145.68728,1264.3253 145.93535,1263.778 146.36557,1263.4015 C 146.79579,1263.0251 147.37347,1262.8369 148.0986,1262.8369 C 148.83066,1262.8369 149.41007,1263.0398 149.83683,1263.4458 C 150.26357,1263.8517 150.47695,1264.3548 150.47695,1264.955 C 150.47695,1265.2603 150.4145,1265.5604 150.2896,1265.8553 C 150.16469,1266.1503 149.95739,1266.4608 149.66769,1266.7869 C 149.37798,1267.113 148.89658,1267.5606 148.2235,1268.1296 C 147.66144,1268.6015 147.30061,1268.9215 147.14101,1269.0898 C 146.98141,1269.2581 146.84957,1269.4272 146.74549,1269.5972 L 150.48736,1269.5972 z M 151.63751,1268.7333 L 152.53785,1268.65 C 152.61418,1269.0733 152.7599,1269.3804 152.97501,1269.5712 C 153.19012,1269.762 153.46594,1269.8574 153.80249,1269.8574 C 154.09046,1269.8574 154.34286,1269.7915 154.55971,1269.6597 C 154.77655,1269.5278 154.95437,1269.3518 155.09315,1269.1314 C 155.23193,1268.9111 155.34816,1268.6136 155.44184,1268.2389 C 155.53551,1267.8642 155.58235,1267.4825 155.58235,1267.094 C 155.58235,1267.0523 155.58061,1266.9899 155.57715,1266.9066 C 155.38979,1267.205 155.13391,1267.447 154.80952,1267.6326 C 154.48511,1267.8182 154.13383,1267.911 153.75565,1267.911 C 153.1242,1267.911 152.58989,1267.682 152.15273,1267.2241 C 151.71557,1266.7661 151.49699,1266.1624 151.49699,1265.413 C 151.49699,1264.6393 151.72511,1264.0165 152.18136,1263.5446 C 152.6376,1263.0728 153.2092,1262.8369 153.89617,1262.8369 C 154.3923,1262.8369 154.84594,1262.9704 155.25709,1263.2376 C 155.66822,1263.5047 155.98048,1263.8855 156.19386,1264.3799 C 156.40723,1264.8743 156.51391,1265.5899 156.51392,1266.5267 C 156.51391,1267.5016 156.40809,1268.2779 156.19646,1268.8556 C 155.98481,1269.4333 155.66995,1269.873 155.25188,1270.1749 C 154.8338,1270.4767 154.34373,1270.6277 153.78167,1270.6277 C 153.18491,1270.6277 152.69745,1270.462 152.31927,1270.1307 C 151.94109,1269.7993 151.71384,1269.3335 151.63751,1268.7333 L 151.63751,1268.7333 z M 155.47306,1265.3661 C 155.47306,1264.8284 155.32994,1264.4016 155.04371,1264.0859 C 154.75747,1263.7702 154.41312,1263.6123 154.01066,1263.6123 C 153.59432,1263.6123 153.23175,1263.7823 152.92297,1264.1223 C 152.61418,1264.4623 152.45978,1264.903 152.45979,1265.4442 C 152.45978,1265.9299 152.60637,1266.3246 152.89955,1266.6282 C 153.19272,1266.9318 153.55442,1267.0836 153.98464,1267.0836 C 154.41833,1267.0836 154.77482,1266.9318 155.05412,1266.6282 C 155.33341,1266.3246 155.47306,1265.9039 155.47306,1265.3661 L 155.47306,1265.3661 z M 157.43508,1268.4835 L 158.37185,1268.3586 C 158.4794,1268.8894 158.66242,1269.272 158.9209,1269.5061 C 159.17938,1269.7403 159.49423,1269.8574 159.86548,1269.8574 C 160.3061,1269.8574 160.67821,1269.7048 160.98179,1269.3995 C 161.28537,1269.0941 161.43716,1268.716 161.43717,1268.2649 C 161.43716,1267.8347 161.29665,1267.4799 161.01562,1267.2006 C 160.73459,1266.9214 160.37723,1266.7817 159.94354,1266.7817 C 159.76659,1266.7817 159.54628,1266.8164 159.2826,1266.8858 L 159.38668,1266.0635 C 159.44913,1266.0705 159.49944,1266.0739 159.53761,1266.0739 C 159.9366,1266.0739 160.29569,1265.9698 160.61489,1265.7617 C 160.93408,1265.5535 161.09368,1265.2326 161.09369,1264.7989 C 161.09368,1264.4554 160.97745,1264.1709 160.745,1263.9454 C 160.51254,1263.7199 160.21242,1263.6071 159.84466,1263.6071 C 159.48036,1263.6071 159.17677,1263.7216 158.93391,1263.9506 C 158.69104,1264.1796 158.53491,1264.5231 158.46552,1264.981 L 157.52875,1264.8145 C 157.64325,1264.1865 157.90346,1263.6999 158.3094,1263.3547 C 158.71533,1263.0095 159.22014,1262.8369 159.82384,1262.8369 C 160.24018,1262.8369 160.62356,1262.9262 160.97399,1263.1049 C 161.3244,1263.2836 161.59242,1263.5273 161.77805,1263.8361 C 161.96366,1264.1449 162.05647,1264.4727 162.05648,1264.8197 C 162.05647,1265.1493 161.968,1265.4494 161.79106,1265.72 C 161.61411,1265.9907 161.35216,1266.2058 161.00521,1266.3654 C 161.45625,1266.4694 161.80667,1266.6854 162.05648,1267.0133 C 162.30628,1267.3412 162.43118,1267.7514 162.43119,1268.2441 C 162.43118,1268.9103 162.18831,1269.4749 161.70259,1269.9381 C 161.21685,1270.4013 160.60275,1270.6329 159.86027,1270.6329 C 159.19065,1270.6329 158.63466,1270.4334 158.1923,1270.0344 C 157.74994,1269.6354 157.49753,1269.1184 157.43508,1268.4835 L 157.43508,1268.4835 z M 163.50327,1268.7333 L 164.40361,1268.65 C 164.47994,1269.0733 164.62565,1269.3804 164.84077,1269.5712 C 165.05587,1269.762 165.3317,1269.8574 165.66825,1269.8574 C 165.95621,1269.8574 166.20862,1269.7915 166.42547,1269.6597 C 166.64231,1269.5278 166.82012,1269.3518 166.95891,1269.1314 C 167.09769,1268.9111 167.21391,1268.6136 167.3076,1268.2389 C 167.40127,1267.8642 167.44811,1267.4825 167.44811,1267.094 C 167.44811,1267.0523 167.44637,1266.9899 167.44291,1266.9066 C 167.25555,1267.205 166.99967,1267.447 166.67528,1267.6326 C 166.35087,1267.8182 165.99958,1267.911 165.62141,1267.911 C 164.98995,1267.911 164.45565,1267.682 164.01849,1267.2241 C 163.58133,1266.7661 163.36275,1266.1624 163.36275,1265.413 C 163.36275,1264.6393 163.59087,1264.0165 164.04711,1263.5446 C 164.50335,1263.0728 165.07496,1262.8369 165.76192,1262.8369 C 166.25806,1262.8369 166.7117,1262.9704 167.12284,1263.2376 C 167.53398,1263.5047 167.84623,1263.8855 168.05961,1264.3799 C 168.27298,1264.8743 168.37967,1265.5899 168.37968,1266.5267 C 168.37967,1267.5016 168.27385,1268.2779 168.06222,1268.8556 C 167.85057,1269.4333 167.53571,1269.873 167.11764,1270.1749 C 166.69956,1270.4767 166.20949,1270.6277 165.64743,1270.6277 C 165.05067,1270.6277 164.5632,1270.462 164.18503,1270.1307 C 163.80685,1269.7993 163.5796,1269.3335 163.50327,1268.7333 L 163.50327,1268.7333 z M 167.33882,1265.3661 C 167.33882,1264.8284 167.1957,1264.4016 166.90947,1264.0859 C 166.62323,1263.7702 166.27888,1263.6123 165.87642,1263.6123 C 165.46007,1263.6123 165.09751,1263.7823 164.78872,1264.1223 C 164.47994,1264.4623 164.32554,1264.903 164.32554,1265.4442 C 164.32554,1265.9299 164.47213,1266.3246 164.7653,1266.6282 C 165.05848,1266.9318 165.42017,1267.0836 165.8504,1267.0836 C 166.28408,1267.0836 166.64058,1266.9318 166.91988,1266.6282 C 167.19917,1266.3246 167.33882,1265.9039 167.33882,1265.3661 L 167.33882,1265.3661 z M 169.30084,1268.4835 L 170.23761,1268.3586 C 170.34516,1268.8894 170.52818,1269.272 170.78666,1269.5061 C 171.04513,1269.7403 171.35999,1269.8574 171.73123,1269.8574 C 172.17186,1269.8574 172.54397,1269.7048 172.84755,1269.3995 C 173.15113,1269.0941 173.30292,1268.716 173.30293,1268.2649 C 173.30292,1267.8347 173.16241,1267.4799 172.88138,1267.2006 C 172.60035,1266.9214 172.24299,1266.7817 171.8093,1266.7817 C 171.63235,1266.7817 171.41204,1266.8164 171.14836,1266.8858 L 171.25244,1266.0635 C 171.31489,1266.0705 171.3652,1266.0739 171.40337,1266.0739 C 171.80236,1266.0739 172.16145,1265.9698 172.48065,1265.7617 C 172.79984,1265.5535 172.95944,1265.2326 172.95944,1264.7989 C 172.95944,1264.4554 172.84321,1264.1709 172.61076,1263.9454 C 172.3783,1263.7199 172.07818,1263.6071 171.71042,1263.6071 C 171.34612,1263.6071 171.04253,1263.7216 170.79967,1263.9506 C 170.5568,1264.1796 170.40067,1264.5231 170.33128,1264.981 L 169.39451,1264.8145 C 169.50901,1264.1865 169.76922,1263.6999 170.17515,1263.3547 C 170.58109,1263.0095 171.0859,1262.8369 171.6896,1262.8369 C 172.10594,1262.8369 172.48932,1262.9262 172.83975,1263.1049 C 173.19016,1263.2836 173.45818,1263.5273 173.64381,1263.8361 C 173.82942,1264.1449 173.92223,1264.4727 173.92224,1264.8197 C 173.92223,1265.1493 173.83376,1265.4494 173.65682,1265.72 C 173.47987,1265.9907 173.21792,1266.2058 172.87097,1266.3654 C 173.32201,1266.4694 173.67243,1266.6854 173.92224,1267.0133 C 174.17204,1267.3412 174.29694,1267.7514 174.29694,1268.2441 C 174.29694,1268.9103 174.05407,1269.4749 173.56835,1269.9381 C 173.08261,1270.4013 172.4685,1270.6329 171.72603,1270.6329 C 171.05641,1270.6329 170.50042,1270.4334 170.05806,1270.0344 C 169.61569,1269.6354 169.36329,1269.1184 169.30084,1268.4835 L 169.30084,1268.4835 z M 177.72657,1270.4976 L 180.65658,1262.8681 L 181.74427,1262.8681 L 184.86684,1270.4976 L 183.71669,1270.4976 L 182.82676,1268.1869 L 179.63654,1268.1869 L 178.79865,1270.4976 L 177.72657,1270.4976 z M 179.92798,1267.3646 L 182.5145,1267.3646 L 181.71825,1265.2516 C 181.47538,1264.6098 181.29497,1264.0824 181.177,1263.6695 C 181.07986,1264.1588 180.94281,1264.6445 180.76587,1265.1267 L 179.92798,1267.3646 z M 185.64228,1270.4976 L 185.64228,1262.8681 L 188.50463,1262.8681 C 189.0875,1262.8681 189.55502,1262.9453 189.90718,1263.0997 C 190.25933,1263.2541 190.53516,1263.4917 190.73466,1263.8127 C 190.93416,1264.1336 191.0339,1264.4693 191.03391,1264.8197 C 191.0339,1265.1458 190.94543,1265.4529 190.76849,1265.7408 C 190.59154,1266.0288 190.32439,1266.2613 189.96703,1266.4382 C 190.42847,1266.5735 190.78323,1266.8043 191.03131,1267.1304 C 191.27937,1267.4565 191.40341,1267.8416 191.40341,1268.2857 C 191.40341,1268.6431 191.32795,1268.9753 191.17703,1269.2824 C 191.0261,1269.5894 190.83961,1269.8262 190.61757,1269.9927 C 190.39551,1270.1593 190.11708,1270.2851 189.78228,1270.3701 C 189.44747,1270.4551 189.0372,1270.4976 188.55147,1270.4976 L 185.64228,1270.4976 z M 186.65191,1266.0739 L 188.30166,1266.0739 C 188.74923,1266.0739 189.07016,1266.0444 189.26445,1265.9854 C 189.52119,1265.9091 189.71462,1265.7825 189.84473,1265.6055 C 189.97483,1265.4286 190.03989,1265.2065 190.03989,1264.9394 C 190.03989,1264.6861 189.97917,1264.4632 189.85774,1264.2706 C 189.7363,1264.0781 189.56283,1263.9462 189.33731,1263.8751 C 189.11179,1263.804 188.72494,1263.7684 188.17676,1263.7684 L 186.65191,1263.7684 L 186.65191,1266.0739 z M 186.65191,1269.5972 L 188.55147,1269.5972 C 188.8776,1269.5972 189.10659,1269.5851 189.23843,1269.5608 C 189.47089,1269.5192 189.66518,1269.4498 189.82131,1269.3526 C 189.97744,1269.2555 190.10581,1269.1141 190.20643,1268.9285 C 190.30704,1268.7429 190.35735,1268.5286 190.35735,1268.2857 C 190.35735,1268.0012 190.28449,1267.754 190.13877,1267.5441 C 189.99305,1267.3342 189.79095,1267.1868 189.53247,1267.1018 C 189.27399,1267.0168 188.90189,1266.9743 188.41616,1266.9743 L 186.65191,1266.9743 L 186.65191,1269.5972 z M 200.24028,1264.7364 L 199.30871,1264.8093 C 199.22544,1264.4415 199.10748,1264.1744 198.95482,1264.0078 C 198.70154,1263.7407 198.38929,1263.6071 198.01805,1263.6071 C 197.71967,1263.6071 197.45772,1263.6904 197.23221,1263.8569 C 196.93729,1264.072 196.70484,1264.386 196.53483,1264.7989 C 196.36482,1265.2117 196.27635,1265.7998 196.26941,1266.5631 C 196.49493,1266.2196 196.77076,1265.9646 197.09689,1265.7981 C 197.42303,1265.6316 197.76477,1265.5483 198.12214,1265.5483 C 198.74665,1265.5483 199.27835,1265.7781 199.71725,1266.2379 C 200.15614,1266.6976 200.37559,1267.2917 200.37559,1268.0203 C 200.37559,1268.4991 200.27237,1268.9441 200.06594,1269.3552 C 199.8595,1269.7664 199.57586,1270.0812 199.21504,1270.2998 C 198.8542,1270.5184 198.4448,1270.6277 197.98683,1270.6277 C 197.20618,1270.6277 196.56953,1270.3406 196.07686,1269.7664 C 195.58418,1269.1922 195.33785,1268.2458 195.33785,1266.9274 C 195.33785,1265.4529 195.6102,1264.3808 196.15492,1263.7112 C 196.63024,1263.1283 197.27037,1262.8369 198.0753,1262.8369 C 198.67552,1262.8369 199.16733,1263.0051 199.55071,1263.3417 C 199.93409,1263.6782 200.16395,1264.1431 200.24028,1264.7364 L 200.24028,1264.7364 z M 196.41513,1268.0255 C 196.41513,1268.3482 196.48366,1268.657 196.6207,1268.9519 C 196.75775,1269.2468 196.94944,1269.4714 197.19578,1269.6258 C 197.44211,1269.7802 197.70059,1269.8574 197.97121,1269.8574 C 198.36674,1269.8574 198.70675,1269.6978 198.99125,1269.3786 C 199.27575,1269.0594 199.418,1268.6258 199.418,1268.0776 C 199.418,1267.5502 199.27748,1267.1347 198.99646,1266.8311 C 198.71542,1266.5276 198.36153,1266.3758 197.93478,1266.3758 C 197.5115,1266.3758 197.1524,1266.5276 196.8575,1266.8311 C 196.56259,1267.1347 196.41513,1267.5329 196.41513,1268.0255 L 196.41513,1268.0255 z M 206.23561,1269.5972 L 206.23561,1270.4976 L 201.19266,1270.4976 C 201.18572,1270.272 201.22215,1270.0552 201.30195,1269.847 C 201.43033,1269.5035 201.63589,1269.1653 201.91866,1268.8322 C 202.20143,1268.4991 202.60996,1268.114 203.14427,1267.6768 C 203.97348,1266.9968 204.53381,1266.4582 204.82525,1266.0609 C 205.11669,1265.6637 205.26241,1265.2881 205.26241,1264.9342 C 205.26241,1264.563 205.1297,1264.2498 204.86428,1263.9948 C 204.59886,1263.7398 204.25278,1263.6123 203.82603,1263.6123 C 203.37499,1263.6123 203.01416,1263.7476 202.74354,1264.0182 C 202.47292,1264.2889 202.33587,1264.6636 202.3324,1265.1424 L 201.36961,1265.0435 C 201.43553,1264.3253 201.6836,1263.778 202.11382,1263.4015 C 202.54404,1263.0251 203.12172,1262.8369 203.84685,1262.8369 C 204.57891,1262.8369 205.15832,1263.0398 205.58508,1263.4458 C 206.01182,1263.8517 206.2252,1264.3548 206.2252,1264.955 C 206.2252,1265.2603 206.16275,1265.5604 206.03785,1265.8553 C 205.91294,1266.1503 205.70564,1266.4608 205.41594,1266.7869 C 205.12623,1267.113 204.64483,1267.5606 203.97175,1268.1296 C 203.40969,1268.6015 203.04886,1268.9215 202.88926,1269.0898 C 202.72966,1269.2581 202.59782,1269.4272 202.49373,1269.5972 L 206.23561,1269.5972 z" id="text1278"/>
  <path style="fill:none;fill-opacity:0.75;fill-rule:evenodd;stroke:#000000;stroke-width:1.625;stroke-linecap:butt;stroke-linejoin:miter;stroke-dasharray:none;stroke-opacity:0.5241935" d="M 406.98169,762.90288 C 402.18313,875.1891 338.36233,944.28831 237.11279,935.65091 C 150.25892,938.53004 67.72376,885.26607 58.6065,775.85898" id="path1281" sodipodi:nodetypes="ccc"/>
  <metadata>
    <rdf:RDF>
      <cc:Work>
        <dc:format>image/svg+xml</dc:format>
        <dc:type rdf:resource="http://purl.org/dc/dcmitype/StillImage"/>
        <cc:license rdf:resource="http://creativecommons.org/licenses/publicdomain/"/>
        <dc:publisher>
          <cc:Agent rdf:about="http://openclipart.org/">
            <dc:title>Open Clip Art Library</dc:title>
          </cc:Agent>
        </dc:publisher>
        <dc:title>Nioubiteul</dc:title>
        <dc:date>2006-12-14T15:03:00</dc:date>
        <dc:description/>
        <dc:source>http://openclipart.org/detail/2054/nioubiteul-by-glibersat</dc:source>
        <dc:creator>
          <cc:Agent>
            <dc:title>glibersat</dc:title>
          </cc:Agent>
        </dc:creator>
        <dc:subject>
          <rdf:Bag>
            <rdf:li>car</rdf:li>
            <rdf:li>car</rdf:li>
            <rdf:li>clip art</rdf:li>
            <rdf:li>clipart</rdf:li>
            <rdf:li>game</rdf:li>
            <rdf:li>game</rdf:li>
            <rdf:li>image</rdf:li>
            <rdf:li>media</rdf:li>
            <rdf:li>png</rdf:li>
            <rdf:li>public domain</rdf:li>
            <rdf:li>racing</rdf:li>
            <rdf:li>racing</rdf:li>
            <rdf:li>svg</rdf:li>
            <rdf:li>top view</rdf:li>
            <rdf:li>top view</rdf:li>
            <rdf:li>transport</rdf:li>
            <rdf:li>transport</rdf:li>
            <rdf:li>vehicle</rdf:li>
            <rdf:li>vehicle</rdf:li>
          </rdf:Bag>
        </dc:subject>
      </cc:Work>
      <cc:License rdf:about="http://creativecommons.org/licenses/publicdomain/">
        <cc:permits rdf:resource="http://creativecommons.org/ns#Reproduction"/>
        <cc:permits rdf:resource="http://creativecommons.org/ns#Distribution"/>
        <cc:permits rdf:resource="http://creativecommons.org/ns#DerivativeWorks"/>
      </cc:License>
    </rdf:RDF>
  </metadata>
</svg>
